<?xml version="1.0" encoding="UTF-8" standalone="no"?>
<svg
   width="64pt"
   height="64pt"
   viewBox="0 0 22.577778 22.577778"
   version="1.1"
   id="svg831"
   inkscape:version="1.1.1 (1:1.1+202109281949+c3084ef5ed)"
   sodipodi:docname="07 - Barista.svg"
   inkscape:export-filename="/media/taufikramadhan/Data/Tr Design Studio/Project Design/TR Creative Design/Icon Design/Project Hiring/Icon Icons/013 - Drinks And Restaurants/Send/1 - Line/04 - Blender.png"
   inkscape:export-xdpi="576"
   inkscape:export-ydpi="576"
   xmlns:inkscape="http://www.inkscape.org/namespaces/inkscape"
   xmlns:sodipodi="http://sodipodi.sourceforge.net/DTD/sodipodi-0.dtd"
   xmlns="http://www.w3.org/2000/svg"
   xmlns:svg="http://www.w3.org/2000/svg"
   xmlns:rdf="http://www.w3.org/1999/02/22-rdf-syntax-ns#"
   xmlns:cc="http://creativecommons.org/ns#"
   xmlns:dc="http://purl.org/dc/elements/1.1/">
  <defs
     id="defs825">
    <pattern
       id="EMFhbasepattern"
       patternUnits="userSpaceOnUse"
       width="6"
       height="6"
       x="0"
       y="0" />
    <pattern
       id="EMFhbasepattern-9"
       patternUnits="userSpaceOnUse"
       width="6"
       height="6"
       x="0"
       y="0" />
    <pattern
       id="EMFhbasepattern-0"
       patternUnits="userSpaceOnUse"
       width="6"
       height="6"
       x="0"
       y="0" />
    <pattern
       id="EMFhbasepattern-7"
       patternUnits="userSpaceOnUse"
       width="6"
       height="6"
       x="0"
       y="0" />
    <pattern
       id="EMFhbasepattern-2"
       patternUnits="userSpaceOnUse"
       width="6"
       height="6"
       x="0"
       y="0" />
    <pattern
       id="EMFhbasepattern-98"
       patternUnits="userSpaceOnUse"
       width="6"
       height="6"
       x="0"
       y="0" />
    <pattern
       id="EMFhbasepattern-6"
       patternUnits="userSpaceOnUse"
       width="6"
       height="6"
       x="0"
       y="0" />
    <pattern
       id="EMFhbasepattern-01"
       patternUnits="userSpaceOnUse"
       width="6"
       height="6"
       x="0"
       y="0" />
    <pattern
       id="EMFhbasepattern-07"
       patternUnits="userSpaceOnUse"
       width="6"
       height="6"
       x="0"
       y="0" />
    <pattern
       id="EMFhbasepattern-8"
       patternUnits="userSpaceOnUse"
       width="6"
       height="6"
       x="0"
       y="0" />
    <pattern
       id="EMFhbasepattern-4"
       patternUnits="userSpaceOnUse"
       width="6"
       height="6"
       x="0"
       y="0" />
    <pattern
       id="EMFhbasepattern-40"
       patternUnits="userSpaceOnUse"
       width="6"
       height="6"
       x="0"
       y="0" />
    <pattern
       id="EMFhbasepattern-08"
       patternUnits="userSpaceOnUse"
       width="6"
       height="6"
       x="0"
       y="0" />
    <pattern
       id="EMFhbasepattern-04"
       patternUnits="userSpaceOnUse"
       width="6"
       height="6"
       x="0"
       y="0" />
    <pattern
       id="EMFhbasepattern-014"
       patternUnits="userSpaceOnUse"
       width="6"
       height="6"
       x="0"
       y="0" />
    <pattern
       id="EMFhbasepattern-27"
       patternUnits="userSpaceOnUse"
       width="6"
       height="6"
       x="0"
       y="0" />
    <pattern
       id="EMFhbasepattern-09"
       patternUnits="userSpaceOnUse"
       width="6"
       height="6"
       x="0"
       y="0" />
    <pattern
       id="EMFhbasepattern-5"
       patternUnits="userSpaceOnUse"
       width="6"
       height="6"
       x="0"
       y="0" />
    <pattern
       id="EMFhbasepattern-018"
       patternUnits="userSpaceOnUse"
       width="6"
       height="6"
       x="0"
       y="0" />
  </defs>
  <sodipodi:namedview
     id="base"
     pagecolor="#ffffff"
     bordercolor="#666666"
     borderopacity="1.0"
     inkscape:pageopacity="0.0"
     inkscape:pageshadow="2"
     inkscape:zoom="6.2578125"
     inkscape:cx="42.666667"
     inkscape:cy="68.234707"
     inkscape:document-units="pt"
     inkscape:current-layer="layer1"
     showgrid="false"
     units="pt"
     inkscape:window-width="1366"
     inkscape:window-height="705"
     inkscape:window-x="0"
     inkscape:window-y="31"
     inkscape:window-maximized="1"
     inkscape:pagecheckerboard="true"
     inkscape:showpageshadow="false"
     inkscape:object-paths="true"
     inkscape:snap-intersection-paths="true"
     inkscape:snap-smooth-nodes="true"
     inkscape:snap-midpoints="true"
     showguides="true"
     inkscape:snap-bbox="true"
     inkscape:bbox-nodes="true"
     inkscape:snap-nodes="false"
     inkscape:snap-global="true"
     inkscape:document-rotation="0">
    <inkscape:grid
       type="xygrid"
       id="grid1378" />
    <sodipodi:guide
       position="0.97013831,21.607643"
       orientation="78.000048,0"
       id="guide1380"
       inkscape:locked="false" />
    <sodipodi:guide
       position="0.97013831,0.97013129"
       orientation="0,78.000005"
       id="guide1382"
       inkscape:locked="false" />
    <sodipodi:guide
       position="21.607639,0.97013129"
       orientation="-78.000048,0"
       id="guide1384"
       inkscape:locked="false" />
    <sodipodi:guide
       position="21.607639,21.607643"
       orientation="0,-78.000005"
       id="guide1386"
       inkscape:locked="false" />
  </sodipodi:namedview>
  <metadata
     id="metadata828">
    <rdf:RDF>
      <cc:Work
         rdf:about="">
        <dc:format>image/svg+xml</dc:format>
        <dc:type
           rdf:resource="http://purl.org/dc/dcmitype/StillImage" />
      </cc:Work>
    </rdf:RDF>
  </metadata>
  <g
     inkscape:label="Icon"
     inkscape:groupmode="layer"
     id="layer1"
     transform="translate(0,-274.42223)">
    <path
       id="path73791"
       style="color:#fff;display:inline;fill:#fff;stroke-width:0.999996;stroke-linecap:round;stroke-linejoin:round;-inkscape-stroke:none"
       d="m 11.288605,275.39269 v 6.6e-4 c -0.568597,0 -1.067625,0.0226 -1.5062307,0.0956 -0.696321,0.11585 -1.264214,0.36998 -1.634295,0.85744 -0.370082,0.48748 -0.518112,1.15533 -0.518112,2.04191 0,0.39794 0.126432,0.76865 0.273681,1.06548 -0.08932,8.9e-4 -0.178602,0.0129 -0.266532,0.0378 -0.372907,0.10541 -0.631824,0.49613 -0.646179,0.95821 -3e-6,8.3e-4 -3e-6,9.6e-4 0,0.003 -0.0073,0.30691 0.04592,0.70982 0.351696,1.01672 0.278949,0.28 0.72838,0.41503 1.341761,0.35104 0.228974,0.46608 0.524949,0.81759 0.811298,1.07719 l -0.266535,1.01933 -0.436852,-0.21128 c -0.141568,-0.0687 -0.311846,-0.0289 -0.408249,0.0956 l -0.481057,0.62537 -1.8527247,0.4115 c -0.060167,0.0133 -0.1156723,0.0429 -0.1599196,0.0858 -0.9731412,0.94513 -1.7333978,1.82739 -2.2109136,2.75698 -0.4687453,0.91252 -0.6518806,1.87793 -0.4674073,2.92404 -0.025262,0.16008 -0.060401,0.53704 0.07866,0.95302 0.1705672,0.51025 0.6265848,1.08306 1.5478362,1.39443 0.00505,0.0529 0.01058,0.10617 0.01754,0.15861 0.01581,0.11712 0.092497,0.21707 0.2015247,0.26263 0,0 0.1167039,0.054 0.2964374,0.11762 l -0.3802966,2.14527 c -0.037601,0.2043 0.119264,0.39292 0.3269889,0.3933 H 17.283617 c 0.207729,-3.7e-4 0.363937,-0.189 0.32634,-0.3933 l -0.380297,-2.14785 c 0.175673,-0.0625 0.289937,-0.11511 0.289937,-0.11511 0.109029,-0.0455 0.185728,-0.14553 0.201525,-0.26263 0.007,-0.0527 0.01246,-0.10605 0.01754,-0.15927 0.921032,-0.31139 1.376641,-0.8836 1.547187,-1.39377 0.141134,-0.42219 0.105268,-0.80367 0.08062,-0.95952 0.182626,-1.04358 0.0016,-2.00696 -0.466106,-2.91754 -0.477515,-0.9296 -1.241024,-1.81186 -2.214169,-2.75699 -0.04424,-0.0429 -0.09909,-0.0725 -0.159267,-0.0858 l -1.854025,-0.41149 -0.480409,-0.62537 c -0.09632,-0.12404 -0.266198,-0.16383 -0.407599,-0.0956 l -0.437502,0.21128 -0.266532,-1.01933 c 0.28638,-0.2596 0.582297,-0.61106 0.811299,-1.07718 0.613444,0.0641 1.06344,-0.0711 1.342411,-0.35104 0.305766,-0.30691 0.358367,-0.70982 0.351042,-1.01672 4e-6,-8.4e-4 4e-6,-9.6e-4 0,-0.003 -0.01435,-0.46209 -0.273272,-0.8528 -0.646179,-0.95822 -0.08696,-0.0246 -0.174938,-0.0366 -0.26328,-0.0378 0.148341,-0.29689 0.275632,-0.66762 0.275632,-1.06548 0,-0.68079 -0.086,-1.22707 -0.295133,-1.67069 -0.20915,-0.44366 -0.552378,-0.77202 -0.98487,-0.97318 -0.153445,-0.0713 -0.246435,-0.0311 -0.312038,-0.0101 -0.0656,0.0215 -0.116677,0.0496 -0.16707,0.0786 -0.05145,0.0295 -0.100486,0.0659 -0.150166,0.10076 -0.0074,-0.0316 -0.0063,-0.0613 -0.01691,-0.0936 -0.01887,-0.0571 -0.04078,-0.11511 -0.09102,-0.18202 -0.05022,-0.067 -0.147797,-0.15061 -0.280185,-0.16903 -0.404577,-0.0565 -0.856428,-0.0767 -1.365816,-0.0767 z m 1.120086,0.72744 c 0.0061,0.0336 0.01344,0.0552 0.01754,0.0962 0.01597,0.15922 0.01432,0.32894 0.01432,0.32894 -0.0045,0.29038 0.33903,0.44685 0.555167,0.25287 0,0 0.151076,-0.13363 0.312038,-0.25742 0.06057,-0.0465 0.112426,-0.0833 0.162518,-0.11573 0.254936,0.1396 0.453931,0.29789 0.584421,0.57467 0.147912,0.31374 0.23403,0.7657 0.23403,1.38857 0,0.30263 -0.160678,0.65273 -0.312038,0.91661 -0.0027,-8e-5 -0.0052,10e-6 -0.0078,0 -0.0054,0 -0.01082,-6e-4 -0.01624,-6.6e-4 -3.33e-4,0 -9.59e-4,0 -0.0013,0 -0.618231,-0.008 -1.103991,-0.40289 -1.367115,-0.67739 0.07271,-0.0517 0.144699,-0.10566 0.215179,-0.16252 0.142651,-0.11498 0.165604,-0.32355 0.05135,-0.46676 -0.05511,-0.0689 -0.135305,-0.11309 -0.222976,-0.1229 -0.08844,-0.009 -0.176921,0.0171 -0.245729,0.0734 -1.462262,1.18018 -3.7496487,1.04208 -3.7496487,1.04208 -0.05963,-0.005 -0.119369,0.008 -0.172924,0.0339 -0.09222,-0.20628 -0.163818,-0.43178 -0.163818,-0.63578 0,-0.81159 0.141508,-1.32004 0.383545,-1.63885 0.242039,-0.31882 0.609022,-0.50397 1.213699,-0.60457 0.8776057,-0.0988 1.6402987,-0.12278 2.5158077,-0.0246 z m -1.727257,6.76667 c -0.06619,0 -1.0818557,-0.3758 -1.5452357,-1.71492 l -0.188524,-1.50686 c 0.608844,-1.2e-4 1.8825397,-0.083 3.0527697,-0.68455 0.268268,0.31248 0.815357,0.82741 1.59399,0.95887 l -0.153419,1.23254 c -0.46338,1.33912 -1.491309,1.71492 -1.545885,1.71492 z m -2.7953367,-2.76284 c 0.105947,-0.003 0.275532,0.0371 0.466754,0.14953 l 0.112464,0.89839 c -0.377282,0.0185 -0.554496,-0.075 -0.651379,-0.17227 -0.119244,-0.11963 -0.161674,-0.32332 -0.156668,-0.53305 0,-0.21025 0.08877,-0.3426 0.228829,-0.3426 z m 6.7907167,0 c 0.219124,0.0356 0.243129,0.17188 0.243129,0.3452 0.0045,0.20877 -0.03858,0.41128 -0.157321,0.53045 -0.09683,0.0971 -0.273896,0.19062 -0.650725,0.17227 l 0.111809,-0.89905 c 0.183109,-0.1073 0.346622,-0.14728 0.453105,-0.14887 z m -4.605805,3.20034 c 0.252483,0.15042 0.428402,0.21128 0.428402,0.21128 0.03418,0.0113 0.06996,0.017 0.10596,0.0169 h 1.365815 c 0.03601,1.3e-4 0.07179,-0.005 0.105961,-0.0169 0,0 0.175965,-0.0609 0.428398,-0.21128 l 0.23143,0.88671 -1.448376,0.69883 -1.4490237,-0.69883 z m -1.3255087,1.09604 1.9385337,0.93806 -0.599372,0.51355 -1.5283347,-1.20394 z m 5.0862127,0 0.189173,0.24767 -1.528335,1.20394 -0.600022,-0.51355 z m -5.9534177,0.69428 c 0.119104,0.33628 0.322482,0.93473 0.475858,1.50948 -0.234642,0.16316 -0.390478,0.43367 -0.394598,0.73719 l -0.550618,0.20868 c -0.01231,-0.14939 -0.03052,-0.30454 -0.08581,-0.45702 -0.06286,-0.17334 -0.254679,-0.26254 -0.427749,-0.19892 -0.1730003,0.0629 -0.2621249,0.25422 -0.1989252,0.4271 0.1126759,0.66337 0.092612,1.30046 0.026628,1.89953 l -0.1813713,-0.29773 c -0.045114,-0.0757 -0.1186474,-0.13037 -0.2041275,-0.15212 -0.086209,-0.0211 -0.1771341,-0.008 -0.2528784,0.0396 -0.156548,0.0957 -0.2059615,0.30024 -0.1105135,0.457 l 0.4557313,0.74955 c -0.5274483,-0.036 -1.2631514,0.15464 -1.3723164,0.49339 0,0 -0.2073858,0.79715 -0.2379273,1.70452 -0.5830161,-0.2471 -0.7966161,-0.58804 -0.8971072,-0.88866 -0.017707,-0.0529 -0.031287,-0.10454 -0.041605,-0.15407 l 0.1326136,0.0806 c 0.156751,0.0955 0.3611947,0.046 0.457006,-0.11058 0.096784,-0.15798 0.045934,-0.36458 -0.1131124,-0.4596 l -0.5064128,-0.30749 c -0.1344874,-0.86788 0.016875,-1.62895 0.4180006,-2.40984 0.4129214,-0.80385 1.1203297,-1.62643 2.0340955,-2.52101 z m 6.8199727,0 1.575139,0.34974 c 0.913766,0.89457 1.621823,1.71715 2.034745,2.521 0.401239,0.7811 0.552009,1.54236 0.417348,2.41049 l -0.505761,0.30685 c -0.159047,0.0949 -0.209895,0.30162 -0.113117,0.4596 0.0958,0.15652 0.300256,0.20596 0.457005,0.11057 l 0.131965,-0.08 c -0.01032,0.0493 -0.02333,0.10077 -0.04096,0.15341 -0.100462,0.30054 -0.31451,0.6416 -0.897107,0.88866 -0.03056,-0.90737 -0.23793,-1.7045 -0.237927,-1.7045 -0.01324,-0.0551 -0.0403,-0.10592 -0.07866,-0.14757 -0.303145,-0.32697 -0.729996,-0.35675 -1.057027,-0.35624 -0.08433,1.3e-4 -0.164194,0.005 -0.237279,0.0101 l 0.456354,-0.74954 c 0.09546,-0.15675 0.04602,-0.36119 -0.110513,-0.457 -0.07582,-0.0465 -0.167119,-0.0609 -0.25353,-0.0396 -0.08538,0.022 -0.158559,0.0769 -0.203476,0.15277 l -0.181371,0.29709 c -0.0789,-0.63139 -0.07809,-1.28375 0.0267,-1.89953 0.0632,-0.17288 -0.02593,-0.36423 -0.198925,-0.4271 -0.173071,-0.0637 -0.364886,0.0255 -0.42775,0.19892 -0.05521,0.15227 -0.07414,0.30717 -0.08646,0.45635 l -0.549957,-0.20772 c -0.0041,-0.30361 -0.160502,-0.57404 -0.395246,-0.73719 0.153368,-0.57472 0.356751,-1.17321 0.475857,-1.50948 z m -5.9261137,0.57142 1.115534,0.8789 c 0.1251057,0.098 0.3020947,0.094 0.4225497,-0.0101 l 0.646179,-0.55319 v 1.03687 H 9.7154173 c -0.118892,-0.29638 -0.39015,-0.51829 -0.713786,-0.56687 z m 5.0322547,0 c -0.07827,0.24814 -0.158657,0.51802 -0.229476,0.78593 -0.323411,0.0487 -0.594309,0.27066 -0.713137,0.56688 h -1.241649 v -1.03688 l 0.646175,0.55322 c 0.120451,0.10379 0.297443,0.1078 0.422554,0.0101 z m -4.6903017,1.6876 c 0,0.13902 -0.106702,0.24313 -0.245729,0.24313 -0.13902,0 -0.24313,-0.10416 -0.24313,-0.24313 0,-0.13468 0.100864,-0.23934 0.24313,-0.24254 0.142263,-0.004 0.245729,0.10354 0.245729,0.24254 z m 4.8398347,0 c 0,0.13896 -0.106061,0.24313 -0.245081,0.24313 -0.139025,0 -0.245729,-0.10416 -0.245729,-0.24313 0,-0.13468 0.106589,-0.23934 0.245729,-0.24573 0.145524,0 0.245081,0.10668 0.245081,0.24573 z m -1.092797,0.33154 c 0.134393,0.33659 0.465822,0.57726 0.847703,0.57726 0.264977,0 0.505398,-0.11636 0.672181,-0.29968 l 0.75149,0.28343 c -0.0027,0.16645 -9.59e-4,0.40313 0.0182,0.66959 0.02097,0.2909 0.05921,0.61925 0.141717,0.94066 -0.446649,-0.27443 -0.927792,-0.48242 -1.394417,-0.64359 -9.59e-4,-8.2e-4 -0.0016,-9.5e-4 -0.0027,-0.003 -1.020085,-0.34261 -1.85732,-0.54536 -2.65102,-0.57207 -0.455879,-0.0153 -0.961999,-0.0339 -1.4815287,0.0396 -0.612818,0.0895 -1.228442,0.3254 -1.683052,0.84446 -0.285048,0.0315 -0.540849,0.099 -0.759292,0.17877 0.102811,-0.49572 0.120428,-0.95786 0.124153,-1.45358 l 0.752155,-0.28407 c 0.166787,0.18334 0.406555,0.29904 0.671532,0.29904 0.381878,0 0.71331,-0.2407 0.8477,-0.57727 z m -1.638845,1.61675 c 0.693588,0.0234 1.469378,0.2079 2.459245,0.54021 0.658051,0.22727 1.327599,0.55455 1.83777,1.00371 0.0077,0.61606 0.02403,1.22464 0.111809,1.80332 -1.366774,-0.0113 -2.193862,-0.29069 -2.935103,-0.73067 -0.806229,-0.47856 -1.521526,-1.17931 -2.619166,-1.94375 -0.3188207,-0.17843 -0.6887047,-0.33026 -1.0063217,-0.40109 0.233365,-0.12228 0.496708,-0.19501 0.785297,-0.23728 0.4596847,-0.0641 0.9201367,-0.0472 1.3664647,-0.0345 z m -2.8811477,0.84315 c 0.387173,-0.004 0.83993,0.0897 1.34046,0.36533 0.8401357,0.58349 1.4618677,1.14956 2.1342077,1.62651 -0.770405,0.32332 -1.9255127,0.48541 -2.9474547,0.53306 -0.797974,0.0372 -1.511157,0.0182 -1.925533,-6.6e-4 0.1032,-0.72339 0.114799,-1.37508 0.113118,-2.11796 0.203199,-0.14228 0.657629,-0.40075 1.285206,-0.4063 z m -2.1511081,0.52786 c 0.1060589,1.7e-4 0.1172197,0.0101 0.1963224,0.0195 -0.01511,0.76888 0.035977,1.51017 -0.2132241,2.26291 -0.2730619,-0.0523 -0.4922506,-0.10994 -0.6390263,-0.16251 -0.048695,-0.88854 0.1314586,-1.86906 0.1599197,-1.99248 0.097632,-0.065 0.2771658,-0.12777 0.4960116,-0.12742 z m 10.6931368,0.12741 c 0.02845,0.12341 0.207964,1.10395 0.159266,1.99249 -0.146771,0.0525 -0.365312,0.1102 -0.638373,0.16253 -0.228263,-0.70532 -0.217328,-1.59399 -0.211274,-2.26293 0.217068,-0.0525 0.464778,0.0241 0.690381,0.10793 z m -4.410781,1.75717 c 0.674159,0.38028 1.455224,0.64605 2.513851,0.73003 l 0.255481,2.05555 h -1.359314 l -0.269781,-1.10774 c -0.03689,-0.149 -0.170887,-0.25346 -0.324389,-0.25287 H 9.2961173 c -0.153502,-6e-4 -0.2875,0.1039 -0.324389,0.25287 l -0.271734,1.10774 h -1.357361 l 0.250278,-1.98793 c 0.377754,0.007 0.828007,0.004 1.307307,-0.0189 1.2186167,-0.0569 2.6219067,-0.21416 3.5721817,-0.77879 z m 3.185382,0.75798 c 0.04457,3.3e-4 0.08974,2.6e-4 0.135216,0 0.02943,0.0726 0.06353,0.14184 0.104664,0.20738 0.06085,0.096 0.166496,0.15438 0.280185,0.15472 0.134194,8.1e-4 0.27204,-0.0136 0.405648,-0.0363 l 0.301638,1.70191 h -0.97252 z m -8.8787673,0.0126 c 0.045832,0.003 0.089115,0.005 0.1456176,0.008 l -0.2535311,2.00811 H 5.6966321 l 0.3035867,-1.70062 c 0.131565,0.0222 0.2664851,0.036 0.3984995,0.0351 0.1136885,-3.3e-4 0.2193349,-0.0586 0.2801814,-0.15472 0.038822,-0.0618 0.071804,-0.12693 0.100115,-0.19502 z m 2.7771346,1.32031 h 3.4720677 l 0.169019,0.69494 H 9.3864773 Z"
       sodipodi:nodetypes="cccssccccsccccccccscsccccccccccccsccccccccccsccscsscccccccccccccccssccsccccccccssccccccccccccccccccccccccccccccccccccccccccccccsccccccccccscccccsccccscccccscccsccccccccscccccccccccccccccccccssscsssscscsccscccscccccsccccccscccccccsccccsccccssccccccccccccccccscccccccccsccccccssccccc"
       inkscape:export-filename="/media/taufikramadhan/Data/Tr Design Studio/Project Design/TR Creative Design/Icon Design/Project Hiring/Icon Icons/013 - Drinks And Restaurants/Send/1 - Line/07 - Barista.png"
       inkscape:export-xdpi="576"
       inkscape:export-ydpi="576" />
  </g>
</svg>
